<?xml version="1.0" standalone="no"?>
<!DOCTYPE svg PUBLIC "-//W3C//DTD SVG 20010904//EN"
 "http://www.w3.org/TR/2001/REC-SVG-20010904/DTD/svg10.dtd">
<svg version="1.0" xmlns="http://www.w3.org/2000/svg"
 width="260.000000pt" height="260.000000pt" viewBox="0 0 260.000000 260.000000"
 preserveAspectRatio="xMidYMid meet">
<metadata>
Created by potrace 1.14, written by Peter Selinger 2001-2017
</metadata>
<g transform="translate(0.000000,260.000000) scale(0.100000,-0.100000)"
fill="#000000" stroke="none">
<path d="M572 2566 c-67 -76 -157 -239 -177 -317 -5 -20 -23 -34 -74 -59 -77
-37 -77 -37 -168 31 -29 22 -57 39 -63 39 -25 0 -6 -31 43 -71 28 -23 56 -46
62 -51 5 -5 5 -12 -3 -20 -9 -9 -24 -7 -65 7 -88 30 -123 0 -42 -36 25 -11 45
-25 45 -30 0 -6 -7 -32 -16 -58 -33 -103 10 -285 97 -406 l33 -46 -19 -192
c-10 -106 -19 -237 -19 -293 -1 -95 1 -103 29 -149 38 -61 75 -89 104 -80 30
9 41 43 42 128 0 40 4 95 9 122 6 39 8 20 9 -83 1 -165 -13 -202 -79 -202 -10
0 -39 23 -64 52 l-45 51 -7 -27 c-3 -15 -4 -100 -2 -189 5 -156 7 -166 46
-282 48 -143 94 -244 125 -273 36 -34 119 -70 213 -94 81 -21 111 -23 324 -22
223 1 461 19 580 45 107 23 386 149 504 227 176 117 356 324 443 509 56 121
68 153 99 273 31 122 32 281 3 488 -39 281 -145 516 -292 645 -193 169 -464
207 -594 82 -39 -37 -43 -46 -43 -88 0 -38 6 -53 32 -82 42 -49 92 -72 212
-100 142 -33 157 -38 250 -89 155 -85 215 -188 261 -446 19 -108 19 -195 0
-340 -23 -179 -44 -257 -98 -368 -37 -78 -65 -121 -113 -171 -112 -119 -292
-225 -403 -237 -64 -7 -64 -7 -58 17 15 60 18 153 8 249 -10 99 -13 121 -27
195 -9 46 -65 229 -74 240 -4 6 -20 39 -34 74 -34 83 -101 190 -168 268 -30
34 -75 93 -102 131 -43 63 -49 80 -66 173 -10 57 -27 140 -38 184 -11 44 -23
117 -26 162 -7 101 -27 198 -67 328 -46 149 -90 215 -145 215 -42 0 -56 -32
-70 -162 -7 -68 -13 -127 -14 -132 0 -10 -146 -4 -157 7 -4 5 -10 66 -13 135
-3 70 -9 133 -13 140 -5 6 -25 12 -47 12 -31 0 -44 -6 -68 -34z m-45 -431 c48
-33 36 -121 -21 -159 -28 -18 -87 -21 -116 -6 -23 12 -39 59 -33 93 3 15 21
40 40 57 38 34 94 40 130 15z m329 -26 c70 -66 15 -219 -80 -219 -93 0 -147
147 -80 221 38 42 114 41 160 -2z m-295 -296 c125 -29 139 -61 54 -125 -97
-74 -186 -34 -209 95 -12 66 -6 67 155 30z m485 -4 c47 -12 62 -34 17 -25 -16
3 -49 8 -75 12 -27 3 -48 10 -48 15 0 12 52 11 106 -2z m-22 -155 c101 -83 82
-97 -23 -17 -49 38 -87 71 -85 75 8 13 45 -6 108 -58z m-504 -704 c8 -72 13
-88 35 -108 19 -16 33 -20 53 -16 38 9 49 22 71 84 11 30 20 46 20 34 1 -11
-6 -41 -15 -66 -13 -38 -22 -49 -53 -62 -47 -18 -88 -10 -112 25 -20 26 -39
176 -39 298 0 102 14 95 22 -11 5 -51 12 -131 18 -178z"/>
<path d="M423 2120 c-42 -17 -56 -77 -27 -118 37 -53 144 -11 144 56 0 50 -65
84 -117 62z"/>
<path d="M717 2082 c-19 -21 -22 -83 -7 -113 27 -49 105 -58 135 -16 28 40 9
126 -30 141 -32 12 -82 6 -98 -12z"/>
</g>
</svg>
